<svg width="200" height="45" viewBox="0 0 200 45" fill="none" xmlns="http://www.w3.org/2000/svg">
<g id="Vector">
<path d="M2.05326 40.6853H3.7643C5.96728 40.6853 6.20255 39.2934 6.20255 38.7367C6.20255 37.0022 4.61983 36.6167 2.18159 36.6167H2.05326V40.6853ZM2.05326 36.06C3.72153 36.0172 5.5609 35.803 5.5609 34.09C5.5609 32.8908 4.61983 32.5054 3.57181 32.5054H2.05326V36.06ZM4.17068 31.6489C5.90311 31.6489 6.90835 32.6553 6.90835 33.9187C6.90835 35.075 6.01005 36.0172 4.83371 36.2099H4.96204C6.39504 36.2099 7.59277 37.0664 7.59277 38.6296C7.59277 39.4861 7.1864 40.2998 6.52337 40.8352C5.77478 41.4133 5.09036 41.499 3.80708 41.499H0.705807V31.6489H4.17068ZM15.5491 41.5204V40.0429C14.6508 41.1992 13.6456 41.7988 12.1698 41.7988C10.8438 41.7988 9.45354 41.242 8.983 39.893C8.83328 39.4433 8.81189 38.8223 8.81189 38.0728V31.6274H10.138V37.7516C10.138 38.9722 10.138 39.9144 11.186 40.514C11.5923 40.7281 12.0629 40.8566 12.5334 40.8352C13.667 40.8352 14.7364 40.1285 15.5278 39.2934V31.6274H16.8752V41.4776L15.5491 41.5204ZM19.0568 31.6489H20.4042V41.499H19.0568V31.6489ZM22.543 41.5204V31.6489H23.9333V40.6424H28.7242V41.5204H22.543ZM31.2694 40.7281H32.4457C33.1088 40.7281 33.9429 40.7067 34.5632 40.4926C36.1886 39.9144 36.9586 38.3512 36.9586 36.7024C36.9586 34.9465 36.1673 33.2334 34.3493 32.7195C33.8146 32.591 33.2799 32.5482 32.7452 32.5696H31.248L31.2694 40.7281ZM33.2799 31.7131C34.0071 31.7131 34.7556 31.7987 35.4614 32.0129C37.3864 32.6981 38.413 34.6253 38.413 36.5953C38.413 38.6938 37.3222 40.5568 35.3117 41.242C34.5631 41.499 33.6007 41.5418 32.8093 41.5418H29.9433V31.6917H33.2799V31.7131ZM39.8032 31.6489H41.1507V41.499H39.8032V31.6489ZM50.9892 41.5632L44.2733 33.5546V41.4347H43.1184V31.5846H44.2733L50.2834 38.7795C50.2834 38.7795 50.2192 32.6981 50.2192 31.5846H51.417V41.5632H50.9892ZM61.5763 36.9379V40.7709C60.4 41.4133 59.0739 41.7559 57.7478 41.7988C55.8015 41.7988 52.8072 40.6639 52.8072 36.7238C52.8072 33.7688 54.8177 31.3705 57.8762 31.3705C59.4375 31.3705 61.0416 32.0771 61.341 33.7688L61.0202 33.8973C60.2289 32.8266 59.3519 32.3127 58.0259 32.3127C55.5449 32.3127 54.2402 34.2827 54.2402 36.5953C54.2402 38.908 55.5021 40.9422 58.0045 40.9422C58.7959 40.9208 59.5872 40.7281 60.293 40.3855V37.7731H58.0687V36.9379H61.5763ZM71.0298 40.878C72.0137 40.878 73.297 40.3855 73.297 38.908C73.297 37.7302 72.4628 37.3448 71.5004 37.0878L70.431 36.8095C68.5061 36.2955 68.1211 35.0964 68.1211 34.1756C68.1211 32.8266 69.1691 31.3491 71.3079 31.3491C72.8906 31.3491 74.1097 32.2484 74.345 33.9829L74.0028 34.1114C73.7675 33.6617 73.1045 32.2913 71.4576 32.2913C69.8107 32.2913 69.4471 33.469 69.4471 34.0471C69.4471 35.2035 70.2812 35.5247 71.6287 35.8459L72.0351 35.9315C73.2542 36.2313 74.6872 36.8737 74.6872 38.6938C74.6872 39.272 74.345 41.7988 71.1368 41.7988C69.4471 41.7988 67.8858 40.9851 67.7361 38.9294L68.0997 38.8223C68.4205 39.636 69.276 40.878 71.0298 40.878ZM80.2909 32.227C77.9168 32.227 76.9116 34.5611 76.9116 36.6167C76.9116 38.6724 77.9596 40.9208 80.2909 40.9208C82.7077 40.9208 83.6274 38.5868 83.6274 36.5311C83.6274 34.4754 82.6436 32.227 80.2909 32.227ZM80.3123 41.7988C77.2966 41.7988 75.5213 39.4861 75.5213 36.5953C75.5213 33.7045 77.2324 31.3705 80.3123 31.3705C83.328 31.3705 85.0818 33.7045 85.0818 36.5739C85.0818 39.4433 83.3494 41.7988 80.3123 41.7988ZM94.0434 34.1542C93.4232 33.0193 92.2254 32.3127 90.9422 32.3127C88.4184 32.3127 87.3489 34.2827 87.3489 36.5739C87.3489 39.5075 89.2097 40.8138 90.9635 40.8138C92.3324 40.8138 93.3804 40.1285 94.129 39.015L94.514 39.1649C94.2145 40.2784 93.1665 41.7988 90.7283 41.7988C87.7126 41.7988 85.9587 39.5075 85.9587 36.6167C85.9587 33.6617 87.7553 31.3491 90.8352 31.3491C92.5676 31.3491 94.1504 32.227 94.4284 33.9615L94.0434 34.1542ZM96.0111 31.6489H97.3586V41.499H96.0111V31.6489ZM99.4546 41.5204V31.6489H105.486V32.5054H100.802V35.9315H104.93V36.7881H100.802V40.6639H106.106V41.5204H99.4546ZM111.047 32.5482V41.5204H109.657V32.5482H106.555V31.6489H114.127V32.5482H111.047ZM119.495 41.9915C118.704 43.7688 117.592 44.4754 115.624 44.4754H115.239V44.0043C117.207 43.8759 117.848 42.8908 118.618 41.2848L118.832 40.8352L115.004 31.6274H116.437L119.517 39.2078L122.832 31.6489H124.008L119.495 41.9915ZM14.6295 8.52249C14.8647 8.41543 15.2069 8.30836 15.4422 8.20129C14.8861 4.13277 12.1057 2.11992 8.34135 2.11992C3.82847 2.11992 0.941076 5.13919 0.941076 8.6938C0.941076 13.2762 5.00481 14.4112 6.2881 14.7538C6.6517 14.8394 8.34135 15.3105 8.68356 15.3748C10.8865 15.9957 11.6351 16.4882 12.2126 17.2591C12.7473 17.9443 13.004 18.8009 12.9826 19.6574C12.9826 22.5054 10.6727 24.2184 7.69971 24.2184C6.07422 24.2184 4.51289 23.6831 3.2296 22.6981C2.18158 21.8416 1.34745 20.7281 0.855523 19.4433C0.577478 19.5503 0.299433 19.636 0 19.7002C0.192493 22.7838 2.1602 26.3598 7.91359 26.3598C13.667 26.3598 16.148 22.5696 16.148 19.1863C16.148 14.6253 12.1484 13.4047 10.9293 13.0621C10.3518 12.8908 7.65693 12.2484 7.14362 12.0557C5.64645 11.5632 3.99957 10.6424 3.99957 8.3726C3.99957 6.03855 5.83895 4.26125 8.66218 4.26125C12.4479 4.26125 13.9664 7.2377 14.6295 8.52249ZM24.9171 13.2977L35.3117 2.80514H32.0394L21.6661 13.2977V2.80514H18.5649V25.7174H21.6661V14.1114L32.8949 25.7174H36.9158L24.9171 13.2977ZM39.1616 2.80514H42.2842V25.7174H39.1616V2.80514ZM49.4279 15.3105C51.31 15.4176 51.5025 15.4176 52.1869 15.4176C58.9028 15.4176 61.5549 12.2698 61.5549 8.60815C61.5549 5.69594 59.8653 4.15418 58.4109 3.51178C57.1062 2.93362 55.6304 2.82656 53.4488 2.82656H46.2838V25.7602H49.4279V15.3105ZM49.4279 4.71093H52.8927C55.6732 4.71093 56.6784 5.35332 57.3629 6.16703C57.9831 6.93791 58.3039 7.8801 58.3039 8.86511C58.3039 10.8565 57.0634 12.8266 54.0905 13.6403C52.5719 14.0257 50.9892 14.1542 49.4279 14.0685V4.71093ZM72.9334 4.88223H80.0984V2.80514H62.5602V4.88223H69.7466V25.7174H72.9334V4.88223ZM101.893 14.1756C101.893 8.20129 98.3638 2.14133 90.7924 2.14133C83.3922 2.11992 79.6279 7.83727 79.6279 14.3255C79.6279 21.606 84.2263 26.4026 90.8138 26.4026C97.7222 26.4026 101.893 21.1778 101.893 14.1756ZM98.5777 14.1542C98.5777 20 95.7545 24.4112 90.8352 24.4112C86.5576 24.4112 82.9644 20.8137 82.9644 14.2398C82.9644 8.50108 86.0229 4.15418 90.8138 4.15418C96.0753 4.13277 98.5777 9.10065 98.5777 14.1542ZM123.516 2.80514H120.736L120.907 19.7859C120.265 18.7581 120.03 18.4797 118.811 17.0236L106.94 2.80514H104.288V25.7388H106.962V7.15204C107.518 8.0514 108.16 8.88652 108.844 9.70022L122.554 26.0386H123.538L123.516 2.80514ZM200 44.2613L190.482 5.67452L193.412 0.0856532H186.91V1.67024H184.921V0H179.254V1.69165H177.329V0.0856532H170.741L172.752 4.08994L172.089 5.41756H162.229L161.566 4.08994L163.576 0.0856532H156.967V1.69165H155.042V0H149.374V1.67024H147.364V0.0856532H140.862L143.792 5.67452L134.274 44.2613L161.437 41.7559V29.3576C161.437 26.1028 163.982 23.4476 167.105 23.4476C170.228 23.4476 172.794 26.1028 172.794 29.3576V41.8416L200 44.2613Z" fill="#0072C5"/>
<path d="M190.482 5.67452L200 44.2613L172.794 41.8416V29.3576C172.794 26.1028 170.228 23.4476 167.105 23.4476C163.982 23.4476 161.437 26.1028 161.437 29.3576V41.7559L134.274 44.2613L143.792 5.67452L140.862 0.0856532H147.364V1.67024H149.374V0H155.042V1.69165H156.967V0.0856532H163.576L161.566 4.08994L162.229 5.41756H172.089L172.752 4.08994L170.741 0.0856532H177.329V1.69165H179.254V0H184.921V1.67024H186.91V0.0856532H193.412L190.482 5.67452Z" fill="#0072C5"/>
</g>
</svg>
